<svg id="exC0DrH2L9Z1" xmlns="http://www.w3.org/2000/svg" xmlns:xlink="http://www.w3.org/1999/xlink" viewBox="0 0 148 150" shape-rendering="geometricPrecision" text-rendering="geometricPrecision"><path d="M77.9349,2.33998l5.7516,2.61738c1.6175.73609,3.3954,1.04959,5.1672.91112l6.2999-.49237c2.7383-.214,5.4354.76757,7.3954,2.69162l4.509,4.42667c1.269,1.245,2.832,2.1476,4.544,2.6235l6.089,1.692c2.646.7354,4.844,2.5802,6.028,5.0586l2.724,5.7021c.766,1.6036,1.926,2.9866,3.372,4.0194l5.143,3.6723c2.235,1.5962,3.67,4.0816,3.935,6.8154l.609,6.2897c.171,1.7689.789,3.4654,1.794,4.9305l3.577,5.2097c1.554,2.2644,2.053,5.0907,1.366,7.7502l-1.578,6.1187c-.444,1.7208-.444,3.5262,0,5.247l1.578,6.1187c.687,2.6595.188,5.4858-1.366,7.7502l-3.577,5.2097c-1.005,1.4651-1.623,3.1616-1.794,4.9309l-.609,6.289c-.265,2.734-1.7,5.22-3.935,6.816l-5.143,3.672c-1.446,1.033-2.606,2.416-3.372,4.019l-2.724,5.703c-1.184,2.478-3.382,4.323-6.028,5.058l-6.089,1.692c-1.712.476-3.275,1.379-4.544,2.624l-4.509,4.426c-1.96,1.924-4.6571,2.906-7.3954,2.692l-6.2999-.492c-1.7718-.139-3.5497.175-5.1672.911l-5.7516,2.617c-2.4999,1.138-5.3699,1.138-7.8698,0l-5.7516-2.617c-1.6175-.736-3.3954-1.05-5.1672-.911l-6.2999.492c-2.7383.214-5.4351-.768-7.3952-2.692l-4.5095-4.426c-1.2682-1.245-2.8317-2.148-4.544-2.624l-6.0884-1.692c-2.6463-.735-4.8448-2.58-6.0286-5.058l-2.7235-5.703c-.766-1.603-1.9264-2.986-3.3727-4.019l-5.1425-3.672c-2.2352-1.596-3.67012-4.082-3.93486-6.816l-.60908-6.289c-.1713-1.7693-.78876-3.4658-1.79456-4.9309L3.12714,91.4924c-1.55446-2.2644-2.05282-5.0907-1.36657-7.7502l1.57886-6.1187c.44402-1.7208.44402-3.5262,0-5.247L1.76057,66.2578c-.68625-2.6595-.18789-5.4858,1.36657-7.7502L6.7035,53.2979c1.0058-1.4651,1.62326-3.1616,1.79456-4.9305l.60908-6.2897c.26474-2.7338,1.69966-5.2192,3.93486-6.8154L18.1845,31.59c1.4463-1.0328,2.6067-2.4158,3.3727-4.0194l2.7235-5.7021c1.1838-2.4784,3.3823-4.3232,6.0286-5.0586l6.0884-1.692c1.7123-.4759,3.2758-1.3785,4.544-2.6235l4.5095-4.42667c1.9601-1.92405,4.6569-2.90562,7.3952-2.69162l6.2999.49237c1.7718.13847,3.5497-.17503,5.1672-.91112l5.7516-2.61737c2.4999-1.13764,5.3699-1.13764,7.8698-.00001Z" transform="matrix(.755267 0 0 0.74947 18.110234 18.789783)" fill="none" stroke="#fff" stroke-opacity="0.3"/></svg>
